<?xml version="1.0" standalone="no"?><svg xmlns="http://www.w3.org/2000/svg" viewBox="0 0 1440 320"><path fill="#eeeeee" fill-opacity="1" d="M0,64L30,58.7C60,53,120,43,180,74.7C240,107,300,181,360,202.7C420,224,480,192,540,165.3C600,139,660,117,720,133.3C780,149,840,203,900,234.7C960,267,1020,277,1080,245.3C1140,213,1200,139,1260,106.7C1320,75,1380,85,1410,90.7L1440,96L1440,320L1410,320C1380,320,1320,320,1260,320C1200,320,1140,320,1080,320C1020,320,960,320,900,320C840,320,780,320,720,320C660,320,600,320,540,320C480,320,420,320,360,320C300,320,240,320,180,320C120,320,60,320,30,320L0,320Z"></path></svg>